<svg width="58" height="56" viewBox="0 0 58 56" fill="none" xmlns="http://www.w3.org/2000/svg">
<path d="M0.874886 25.0312H46.5858L19.2265 1.28125C18.789 0.898438 19.0546 0.1875 19.6327 0.1875H26.5468C26.8515 0.1875 27.1405 0.296875 27.3671 0.492187L56.8905 26.1094C57.1609 26.3438 57.3778 26.6335 57.5264 26.9591C57.675 27.2846 57.752 27.6382 57.752 27.9961C57.752 28.3539 57.675 28.7076 57.5264 29.0331C57.3778 29.3587 57.1609 29.6484 56.8905 29.8828L27.1952 55.6562C27.078 55.7578 26.9374 55.8125 26.789 55.8125H19.6405C19.0624 55.8125 18.7968 55.0938 19.2343 54.7188L46.5858 30.9688H0.874886C0.531136 30.9688 0.249886 30.6875 0.249886 30.3438V25.6562C0.249886 25.3125 0.531136 25.0312 0.874886 25.0312Z" fill="black" fill-opacity="0.5"/>
</svg>
