<svg width="58" height="56" viewBox="0 0 58 56" fill="none" xmlns="http://www.w3.org/2000/svg">
<path d="M57.1251 25.0312H11.4142L38.7735 1.28125C39.211 0.898438 38.9454 0.1875 38.3673 0.1875H31.4532C31.1485 0.1875 30.8595 0.296875 30.6329 0.492187L1.10948 26.1094C0.839078 26.3438 0.622218 26.6335 0.473592 26.9591C0.324966 27.2846 0.248047 27.6382 0.248047 27.9961C0.248047 28.3539 0.324966 28.7076 0.473592 29.0331C0.622218 29.3587 0.839078 29.6484 1.10948 29.8828L30.8048 55.6562C30.922 55.7578 31.0626 55.8125 31.211 55.8125H38.3595C38.9376 55.8125 39.2032 55.0938 38.7657 54.7188L11.4142 30.9688H57.1251C57.4689 30.9688 57.7501 30.6875 57.7501 30.3438V25.6562C57.7501 25.3125 57.4689 25.0312 57.1251 25.0312Z" fill="black" fill-opacity="0.5"/>
</svg>
