<svg width="97" height="9" viewBox="0 0 97 9" fill="none" xmlns="http://www.w3.org/2000/svg">
<path d="M2.40191 8.01389L0.911935 8.00518L0.940626 0.865232L5.03056 0.889154L5.02557 2.12914L2.42562 2.11394L2.41822 3.95392L4.83818 3.96808L4.8332 5.20807L2.41324 5.19391L2.40191 8.01389ZM15.251 5.349C15.2492 5.80233 15.1842 6.20529 15.0561 6.55788C14.9347 6.91051 14.7568 7.20947 14.5225 7.45477C14.2949 7.69345 14.0175 7.87516 13.6903 7.99991C13.3632 8.118 12.9929 8.17584 12.5796 8.17342C12.1996 8.1712 11.8465 8.10913 11.5204 7.98722C11.2009 7.85869 10.9249 7.67374 10.6926 7.43237C10.4602 7.18434 10.2781 6.88327 10.1462 6.52916C10.021 6.17509 9.95925 5.77139 9.96107 5.31806C9.96351 4.7114 10.0722 4.20203 10.2872 3.78995C10.5022 3.3712 10.8102 3.05299 11.2111 2.83533C11.6119 2.61767 12.0857 2.51044 12.6324 2.51364C13.1457 2.51664 13.5986 2.62929 13.991 2.85159C14.3835 3.07389 14.6922 3.3957 14.9171 3.81703C15.1421 4.23168 15.2534 4.74234 15.251 5.349ZM11.481 5.32695C11.4796 5.68695 11.515 5.99049 11.5874 6.23759C11.6664 6.47805 11.789 6.66211 11.9552 6.78975C12.1214 6.91072 12.3378 6.97199 12.6044 6.97355C12.8711 6.97511 13.0847 6.91636 13.2451 6.79729C13.4123 6.6716 13.5331 6.48897 13.6074 6.2494C13.6883 6.00321 13.7296 5.70011 13.731 5.34011C13.7325 4.98011 13.6937 4.67988 13.6146 4.43942C13.5423 4.19899 13.423 4.01829 13.2568 3.89732C13.0906 3.77634 12.8742 3.71507 12.6075 3.71352C12.2142 3.71121 11.927 3.8462 11.7459 4.11848C11.5715 4.38413 11.4832 4.78696 11.481 5.32695ZM25.4422 5.40861C25.4404 5.86194 25.3754 6.2649 25.2474 6.61749C25.1259 6.97012 24.9481 7.26908 24.7137 7.51438C24.4861 7.75305 24.2087 7.93477 23.8815 8.05952C23.5544 8.17761 23.1842 8.23545 22.7708 8.23303C22.3909 8.23081 22.0378 8.16874 21.7116 8.04683C21.3921 7.91829 21.1162 7.73334 20.8838 7.49198C20.6515 7.24395 20.4693 6.94288 20.3374 6.58877C20.2122 6.2347 20.1505 5.831 20.1523 5.37767C20.1547 4.77101 20.2635 4.26164 20.4784 3.84955C20.6935 3.4308 21.0014 3.1126 21.4023 2.89494C21.8032 2.67728 22.2769 2.57005 22.8236 2.57325C23.3369 2.57625 23.7898 2.6889 24.1822 2.9112C24.5747 3.1335 24.8834 3.45531 25.1084 3.87663C25.3334 4.29129 25.4446 4.80195 25.4422 5.40861ZM21.6723 5.38656C21.6708 5.74656 21.7063 6.0501 21.7786 6.2972C21.8577 6.53766 21.9802 6.72171 22.1464 6.84936C22.3126 6.97033 22.529 7.0316 22.7957 7.03316C23.0623 7.03472 23.2759 6.97596 23.4364 6.8569C23.6036 6.73121 23.7243 6.54858 23.7986 6.30901C23.8796 6.06281 23.9208 5.75972 23.9222 5.39972C23.9237 5.03972 23.8849 4.73949 23.8059 4.49902C23.7335 4.2586 23.6142 4.0779 23.448 3.95692C23.2819 3.83595 23.0654 3.77468 22.7988 3.77312C22.4054 3.77082 22.1182 3.90581 21.9371 4.17809C21.7627 4.44374 21.6744 4.84656 21.6723 5.38656ZM32.3921 8.2893C31.7854 8.28576 31.2897 8.04619 30.905 7.57059C30.5269 7.08838 30.3397 6.38394 30.3435 5.45728C30.3472 4.52395 30.5434 3.81842 30.932 3.34069C31.3206 2.86295 31.8282 2.62592 32.4548 2.62958C32.7148 2.6311 32.9447 2.66911 33.1444 2.74362C33.3441 2.81145 33.5137 2.90578 33.6532 3.0266C33.7994 3.14746 33.9222 3.28484 34.0216 3.43876L34.0716 3.43905C34.052 3.33227 34.0293 3.1788 34.0034 2.97865C33.9776 2.77182 33.9651 2.56175 33.966 2.34842L33.973 0.598431L35.463 0.607145L35.4324 8.20708L34.2925 8.20042L34.0053 7.48873L33.9453 7.48838C33.8514 7.6345 33.7308 7.77046 33.5837 7.89627C33.4432 8.01545 33.2761 8.11114 33.0825 8.18334C32.8889 8.25554 32.6587 8.29086 32.3921 8.2893ZM32.9169 7.10235C33.3302 7.10477 33.6207 6.98647 33.7883 6.74745C33.9559 6.50176 34.0441 6.1356 34.0527 5.64898L34.0533 5.48898C34.0555 4.95565 33.9738 4.5485 33.8083 4.26752C33.6494 3.98659 33.35 3.84484 32.91 3.84226C32.5833 3.84035 32.3261 3.98218 32.1382 4.26776C31.9505 4.54666 31.8555 4.95278 31.8533 5.48611C31.8512 6.01944 31.9429 6.42331 32.1285 6.69774C32.3141 6.96549 32.5769 7.10037 32.9169 7.10235ZM44.1304 8.25796L42.4329 2.64794L42.3929 2.64771C42.3991 2.78108 42.4083 2.98114 42.4205 3.24788C42.4328 3.51462 42.445 3.80137 42.4571 4.10811C42.4692 4.40818 42.4748 4.68155 42.4738 4.92822L42.4604 8.24819L41.1105 8.2403L41.1392 1.10035L43.1991 1.1124L44.8672 6.58224L44.8971 6.58242L46.7091 1.13293L48.769 1.14498L48.7403 8.28492L47.3304 8.27668L47.3439 4.8967C47.3448 4.67004 47.3492 4.41006 47.3571 4.11677C47.3716 3.82351 47.3827 3.54691 47.3904 3.28695C47.4048 3.02036 47.4156 2.82042 47.4228 2.68713L47.3828 2.6869L45.5204 8.26609L44.1304 8.25796ZM56.6862 2.76131C57.4195 2.7656 57.9788 2.92887 58.3642 3.25113C58.7563 3.56676 58.951 4.05124 58.9484 4.70457L58.9338 8.34454L57.8938 8.33846L57.6067 7.59677L57.5667 7.59654C57.4126 7.78897 57.252 7.94803 57.0848 8.07372C56.9243 8.19945 56.7373 8.28836 56.5238 8.34045C56.3168 8.39924 56.0601 8.42774 55.7534 8.42594C55.4334 8.42407 55.1437 8.36238 54.8841 8.24086C54.6313 8.11271 54.4321 7.92154 54.2864 7.66735C54.1408 7.4065 54.0688 7.0794 54.0704 6.68607C54.0727 6.10608 54.2778 5.6806 54.6855 5.40965C55.0933 5.13203 55.7039 4.98227 56.5173 4.96036L57.4674 4.93591L57.4684 4.69592C57.4696 4.40925 57.3937 4.1988 57.2409 4.06458C57.0948 3.93039 56.8884 3.86251 56.6218 3.86095C56.3551 3.85939 56.0949 3.89787 55.8413 3.97639C55.5877 4.04824 55.334 4.14009 55.0802 4.25194L54.5942 3.23908C54.8882 3.08747 55.212 2.96936 55.5657 2.88476C55.926 2.8002 56.2995 2.75905 56.6862 2.76131ZM56.8839 5.82251C56.4038 5.83304 56.0702 5.91776 55.8828 6.07666C55.6955 6.23557 55.6014 6.44502 55.6003 6.70502C55.5994 6.93169 55.6654 7.09541 55.7983 7.19619C55.9313 7.2903 56.1044 7.33798 56.3178 7.33923C56.6378 7.3411 56.9081 7.24935 57.1289 7.06397C57.3497 6.87192 57.4607 6.60257 57.4621 6.2559L57.4639 5.80591L56.8839 5.82251ZM67.5311 2.83474C67.6044 2.83517 67.6911 2.83901 67.7911 2.84626C67.891 2.85351 67.971 2.86398 68.0309 2.87767L67.9153 4.27701C67.8687 4.26341 67.7987 4.253 67.7054 4.24578C67.6188 4.23194 67.5422 4.22483 67.4755 4.22444C67.2822 4.22331 67.0954 4.24888 66.9152 4.30116C66.735 4.34678 66.5714 4.42249 66.4243 4.5283C66.2839 4.63414 66.17 4.77681 66.0826 4.9563C66.0019 5.12917 65.961 5.3456 65.96 5.6056L65.9488 8.38557L64.4588 8.37686L64.4808 2.9169L65.6107 2.92351L65.827 3.84479L65.897 3.8452C66.0044 3.65916 66.1385 3.48994 66.2991 3.33754C66.4597 3.18515 66.6435 3.06289 66.8506 2.97076C67.0643 2.87868 67.2911 2.83334 67.5311 2.83474ZM74.5065 4.23556C74.5057 4.44223 74.4949 4.64883 74.474 4.85538C74.4599 5.0553 74.4424 5.25854 74.4216 5.46508L74.4416 5.4652C74.5086 5.37226 74.5757 5.27932 74.6427 5.18637C74.7164 5.09347 74.7901 5.00057 74.8638 4.90766C74.9375 4.81476 75.0146 4.72521 75.0949 4.63901L76.6316 2.98797L78.3115 2.9978L76.132 5.35509L78.4196 8.45852L76.6996 8.44846L75.1385 6.22929L74.4965 6.73554L74.4897 8.43553L72.9997 8.42681L73.0302 0.826875L74.5202 0.83559L74.5065 4.23556ZM85.473 2.93968C85.9796 2.94265 86.4126 3.04185 86.7718 3.23729C87.1377 3.43276 87.4199 3.71442 87.6184 4.08225C87.8169 4.45008 87.9151 4.90066 87.913 5.43399L87.9101 6.15399L84.3901 6.1334C84.4018 6.55347 84.5238 6.88419 84.7562 7.12556C84.9952 7.36696 85.3247 7.48889 85.7447 7.49134C86.098 7.49341 86.4181 7.46195 86.7051 7.39696C86.992 7.3253 87.2891 7.21704 87.5964 7.07217L87.5918 8.22216C87.3246 8.35393 87.0409 8.44894 86.7406 8.50718C86.447 8.57214 86.0902 8.60338 85.6702 8.60093C85.1236 8.59773 84.6407 8.4949 84.2215 8.29245C83.8023 8.08333 83.4736 7.7714 83.2352 7.35666C82.9969 6.94193 82.879 6.42123 82.8815 5.79457C82.8841 5.15458 82.9929 4.6252 83.2079 4.20646C83.4296 3.78108 83.7342 3.46286 84.1217 3.25179C84.5092 3.04072 84.9597 2.93668 85.473 2.93968ZM85.4787 3.99973C85.1921 3.99806 84.9517 4.08999 84.7576 4.27552C84.5702 4.46109 84.459 4.75045 84.4241 5.14358L86.5141 5.15581C86.515 4.93581 86.4758 4.73891 86.3965 4.56511C86.3238 4.39135 86.211 4.25402 86.0581 4.15313C85.9052 4.05223 85.7121 4.0011 85.4787 3.99973ZM95.4131 7.46789C95.5797 7.46887 95.7398 7.45314 95.8932 7.4207C96.0467 7.38826 96.2002 7.34916 96.3537 7.30339L96.3493 8.41338C96.189 8.47911 95.9888 8.53461 95.7486 8.57987C95.515 8.63184 95.2583 8.65701 94.9783 8.65537C94.6516 8.65346 94.3585 8.59841 94.0989 8.49022C93.846 8.38207 93.6434 8.19755 93.4912 7.93666C93.3456 7.66914 93.2737 7.30204 93.2756 6.83538L93.2861 4.2054L92.5762 4.20125L92.5787 3.57125L93.4007 3.07605L93.8353 1.92858L94.7853 1.93413L94.7806 3.09413L96.3106 3.10307L96.3061 4.22307L94.7761 4.21412L94.7656 6.8441C94.7647 7.05076 94.8241 7.20778 94.9437 7.31514C95.0633 7.41585 95.2197 7.46676 95.4131 7.46789Z" fill="#4CAF50"/>
</svg>
